<svg fill="none" height="43" viewBox="0 0 43 43" width="43" xmlns="http://www.w3.org/2000/svg"><g clip-rule="evenodd" fill-rule="evenodd"><path d="m.462796 21.3809c-.035951 2.8105.486552 5.6001 1.537204 8.2071 1.05064 2.6069 2.60853 4.9793 4.58324 6.9794 1.97472 2.0002 4.32696 3.5883 6.92026 4.6722s5.376 1.642 8.1867 1.642 5.5934-.5581 8.1867-1.642 4.9456-2.672 6.9203-4.6722c1.9747-2.0001 3.5326-4.3725 4.5832-6.9794 1.0507-2.607 1.5732-5.3966 1.5372-8.2071-.0001-.7692-.0407-1.5378-.1215-2.3028-.5886-5.3991-3.2241-10.36723-7.3642-13.88233-4.1401-3.51509-9.47-5.309748-14.8931-5.014746-5.423.295001-10.5268 2.657226-14.26115 6.600676-3.73439 3.9434-5.815391 9.1682-5.814854 14.5992z" fill="#fff"/><g fill="#645eae" opacity=".2"><path d="m27.0549 35.7292c-.207.5629-.5115 1.085-.8996 1.5422-.4967.5141-.8788.6113-1.5213.7989-.288.1419-.6031.2201-.9239.2292-.3464-.0364-.6957-.0364-1.042 0-.6739.1529-1.0421.7503-1.7854.7885s-1.1774-.198-1.7992-.3856c-.6217-.1875-1.2677-.4341-1.8096-.6391-.5418-.2049-1.1184-.382-1.7367-.58-.6182-.198-.9968-.6495-1.82-.4203-.0521.3091.0243.7919-.3473.9448-.2571.1076-.6947-.1668-.9622-.2744-.7224-.2744-1.3719-.4273-2.0562-.7155-.3201-.0781-.62597-.2059-.90652-.3786-.32302-.2397-.67036-.4168-1.0038-.6426-.62173-.4133-1.23305-.8649-1.85131-1.2852-1.18788-.8092-1.95203-1.9138-2.67448-3.0843-.35307-.633-.63273-1.3042-.8336-2.0006-.29523-.8649-.19451-1.1115.38554-1.8201 1.04201.4342 1.45188-.2084 1.16359-1.3233-.28365-1.0722-.33224-2.1931-.14242-3.2858.03821-.1806.17368-.3092.20494-.5627-.00342-.2603.01399-.5205.05208-.778.12907-.4163.19579-.8494.19799-1.2852-.04664-.5156-.0268-1.0351.05904-1.5456.10067-.2473.16954-.5064.20494-.7711-.02283-.3239-.00532-.6495.0521-.9691.24661-.8579 1.04201-1.0976 1.73668-1.3442.48627-.1667.72593-.3299 1.04201 0 .31607.33.2466.8302.25007 1.2886 0 .858-.54879 1.6152-1.04201 2.3133-.21187.3126-.58698.6113-.53141 1.042.02779.2327.31955.2675.30218.5036-.01736.2362-.32997.3752-.4828.5731-1.22957 1.6047 1.08368 3.0149 2.18473 3.8624.62868.4863 1.57346.7329 1.81306 1.5387.2571.8614-.3473 1.5804-.64947 2.3133-.30218.7329-.61131 2.1187-.13199 2.8412.24099.2872.55206.5073.90306.6391.4515.2153.6217.4862 1.0212.778.6625.4491 1.4609.653 2.2577.5766.4702-.0439.9171-.225 1.2851-.521.3267-.2878.6928-.5275 1.0872-.7121.2374-.0399.4782-.0574.719-.0521.3473-.0451.4341-.1945.7502-.2778.5488-.139.9378.2466 1.365.4654.3473.1841.7954.4481 1.2365.3473.4411-.1007.9205-.3855 1.3269-.4723.9829-.2015 2.5702-.271 3.3552.3959.396.3474.5349.8058.8892 1.1601s1.0003.3995 1.108 1.1844z"/><path d="m7.51034 13.361c.94476.0174 1.80962-.6947 2.58066-1.2226.6734-.4582 1.2224-1.0764 1.5978-1.7992.0747-.1899.1396-.38352.1945-.58006 0-.04515.2466-.65646.2431-.67383-.0683-.40036-.2674-.76679-.5661-1.04201-.7676-.79192-1.93816-.22229-2.70577.25703-.73232.44197-1.41678.9588-2.04233 1.54217-.34261.2559-.64978.556-.9135.8927-.27787.4689-.1945 1.042-.18755 1.6116 0 .8718-1.12538 1.8721.25007 2.0632.54184.0764 2.19863-.3786 2.3202-1.042z"/><path d="m24.4811 40.8733c.2361.2606.5105.0799.7745 0 .2482-.0847.5089-.127.7711-.125.5382.0259 1.0775-.0173 1.6047-.1285.5071-.1285.9934-.2015 1.4796-.323.1911-.0487.3786-.1563.5731-.198.1216-.0243.2571 0 .3786 0 .0591 0 .0626-.0799.1042-.0903.1008-.0209.1946 0 .2918-.0243.4693-.0895.9332-.2055 1.3894-.3474.2017-.0354.3979-.0973.5835-.1841.198-.1215.4689-.257.646-.389.7344-.471 1.4312-.9982 2.084-1.5769.594-.5974 1.2088-1.1462 1.834-1.7019.1424-.132.2605-.3022.4133-.4203.169-.1042.3303-.2203.4828-.3473.3088-.3298.5888-.6854.8371-1.0629.5071-.7329 1.1601-1.3303 1.5595-2.1326.1786-.3885.3768-.7675.594-1.1358.1482-.2496.2782-.5097.389-.778.0764-.1945.2361-.4238.2882-.6079.0799-.2744.0765-.5418.1529-.8093.0347-.1181.1111-.1979.1389-.3126.0278-.1146-.0417-.316 0-.4585.0417-.1424.1112-.1875.139-.3126.0277-.125-.0417-.316 0-.4619.0416-.1459.1111-.1876.1389-.3091.0278-.1216-.0521-.3474 0-.528s.1146-.1806.1424-.3091c.0156-.1513.0156-.3038 0-.455 0-.33.1146-.5836.132-.8996.0382-.3219.0382-.6472 0-.9691-.0278-.1285-.1112-.1876-.1424-.3091-.0313-.1216.0417-.3474 0-.5106-.3474-.0903-.2362.646-.2362.8232 0 .3473-.1355.514-.1285.8371 0 .3994-.1563.4515-.3925.7433-.1529.1593-.2827.3394-.3856.5349-.0312.1111-.0278.2848-.0555.3924-.0425.1242-.0648.2544-.066.3856 0 .3161.0243.4724-.2223.6738-.1968.1612-.4252.2795-.6704.3473-.2918.066-.5488.0626-.8475.1181-.1355.0244-.1841.1112-.3091.139s-.3473-.0625-.4967.0208c-.1753.1314-.3081.3113-.3821.5176-.035.1241-.0442.2542-.0268.3821.0173.1278.0607.2508.1276.3611.0451.0834.0799.1737.1285.2536s.1771.1876.2327.2848c.2396.4446-.1077 1.1671-.2049 1.5457-.0383.1458-.2571.5904-.1355.7224s.8475.0209.9864-.059c.0799.1597-.0729.4724-.1215.646-.0612.2419-.1522.4752-.271.6947-.2622.3985-.6205.7246-1.042.9482-.2605.1355-.4202.2084-.4689-.1424-.0208-.1598.0243-.2466-.0556-.3925-.0798-.1459-.1632-.1181-.2049-.2466-.0416-.1285.0452-.3195 0-.4619-.0451-.1425-.1007-.1702-.1215-.264-.073-.3022.0451-.6461 0-.9517-.1042-.6183-.5662-.8961-1.1011-1.042-.5472-.1261-1.0829-.2981-1.6012-.5141-.5615-.275-1.2051-.3319-1.8062-.1598-.4652.1896-.9117.4222-1.3337.6947-.194.0921-.3936.1721-.5974.2397-.2362.0903-.4794.1806-.7156.2466-.4515.087-.8903.2305-1.3059.4272-.4261.2182-.8087.5125-1.1289.8683-.2501.3474-.4897 1.0421-.3091 1.4727.1389.3231.6252.6044.8579.8753.396.4655.2918.7746 0 1.2504-.1386.1837-.2552.3831-.3473.594-.0401.295-.0401.5941 0 .8892.0126.2227.0912.4367.2258.6147.125.1911.4202.3092.521.5037.1007.1945 0 .264-.066.3959-.0209.0383-.0834.0487-.1043.0869-.0486.0938-.0173.1771-.0555.2674-.1285.2918-.3821.2466-.6461.3161-.2575.0677-.5303.0469-.7745-.059-.1205-.0626-.2491-.1082-.3821-.1355-.1876-.0278-.2779.0729-.4168.1007-.3161.066-.4967-.1493-.8127-.1667-.1169-.0015-.2324.0244-.3374.0757-.1049.0513-.1964.1265-.267.2195-.1633.1633-.3925.4342-.3647.6773.0278.2432.2813.3925.4585.6252z"/><path d="m26.9263 31.2314c-.0727-.0419-.1481-.0791-.2257-.1112-.1996.2414-.4337.452-.6947.6252-.3751.2362-.5592.0869-.646-.316-.0452-.2084.0694-.3474.1042-.4828.0347-.1355 0-.3474.184-.462.2501-.1459.983-.0695.8753.3473z"/><path d="m39.2672 14.6462c.0207.0431.0551.0782.0979.0995.0427.0214.0914.028.1383.0186.0486-.2687.0486-.544 0-.8127-.0244-.1216-.1042-.1807-.1216-.3474-.0017-.1161-.0098-.2321-.0243-.3473-.0347-.1598-.1667-.4099-.2015-.5731-.0277-.2085-.0814-.4127-.1598-.6078-.0903-.2084-.1458-.4794-.2361-.7156-.0853-.1983-.1875-.3889-.3057-.5696-.2397-.3925-.4342-.7711-.6947-1.16356-.4114-.72021-.9356-1.36985-1.5525-1.92424-.2189-.18409-.469-.32303-.6947-.48627-.0799-.05558-.1424-.14588-.2188-.19451-.0765-.04863-.198-.07294-.264-.12157-.2015-.14588-.7781-.73288-1.042-.59047.1806.47585.4932.95517.7224 1.4206.264.54185.7607.51753 1.1567.90308.6182.60089-.4134.85097-.7711 1.08368-.3578.23272-.3474.55926-.3474.93786.012.3268-.0314.6532-.1285.9655-.0535.1467-.0988.2963-.1354.4481 0 .0903 0 .1771.0173.2675-.0035.032-.0154.0626-.0342.0888-.0189.0261-.0442.047-.0735.0605-.0392.3133.0294.6306.1946.8996.0813.3112.2361.5983.4515.8371.2501.2362.528.1563.8683.1632.1756-.0066.349-.0406.5141-.1007.1285-.0313.3126-.1077.4133-.1285.1529-.0278.3022-.0243.4585-.0556.1563-.0312.1702-.1285.3856-.0729.2153.0556.4307.3126.6634.3647.323.0729.6946-.0799 1.0142 0 .0243.0521.0312.0903-.0903.2535z"/><path d="m15.2177 31.0613c.3716 0 .8579.4237 1.0802.7433.3022.4341-.2605.8857-.5766 1.1045-.1074.0854-.2239.1587-.3473.2188-.1099.0634-.2264.1146-.3473.1529-.2258 0-.3126-.5419-.3995-.719-.2674-.5662.1633-.976.5905-1.3095z"/><path d="m13.3942 31.9259.0764.0626c.125-.2744-.0695-.5662-.0903-.8232-.1315.031-.2529.0952-.3526.1864s-.1744.2064-.217.3346c0 .3126.4619.33.6773.3473z"/><path d="m10.0319 19.4463c.1077-.4689.7642.0556.9378.2154.1546.1079.275.2578.347.432.0721.1742.0927.3654.0594.5509 0 .2397.0972.4273.0972.6739.0023.2451-.0293.4894-.0937.7259-.1409.3968-.4129.7337-.7711.9552-.1737.1181-.3856.2049-.5766.3091-.25007.1355-.25355.1945-.51406.0625-.31164-.1343-.60002-.3172-.85443-.5418-.28295-.2638-.53257-.5613-.7433-.8857-.25356-.4377 0-.7711.24314-1.1532.30274-.4435.65207-.8534 1.042-1.2226.10836-.1471.23698-.278.38206-.389.23272-.1285.50369.0799.44459.2674z"/><path d="m10.1292 17.7199.0764-.0208c0-.1251.2744-.5245.0973-.6391-.1772-.1146-.34736.1771-.41336.2709-.12851.1563-.24312.4376-.0764.6078.03659.0382.08462.0634.13682.0718.05224.0084.10574-.0004.15244-.0251.0467-.0248.0841-.0641.1065-.112s.0286-.1018.0176-.1535z"/><path d="m14.3528 38.7408c.1007-.0786.2166-.1355.3403-.1671.1237-.0317.2526-.0375.3787-.017.2466.0555.4342.1389.6703.1806.5273.105 1.0325.3001 1.4936.5766.5974.3681 1.6498 1.4101.6321 1.9346-.444.1621-.9185.2238-1.3893.1806-.2431 0-.3751-.1007-.6252-.0972-.245-.0149-.4868-.0628-.719-.1424-.4262-.1008-.8432-.2367-1.2469-.4064-.3541-.1713-.6733-.4069-.9413-.6947-.0865-.0704-.1569-.1584-.2067-.2581-.0497-.0998-.0777-.209-.082-.3204-.0042-.1114.0153-.2224.0573-.3257.0419-.1033.1054-.1964.1862-.2732.2154-.2154.4029-.1668.6947-.1668z"/><path d="m11.7617 38.5496c.0145.0331.0403.0599.0727.0758.0325.0159.0694.0198.1045.011.1077-.2188-.4342-.5626-.587-.6391-.2536-.1285-.7468-.4029-.844.0209-.0591.2744.2431.6391.4828.7745.0792.0369.1651.0571.2524.0594s.1741-.0133.2552-.0458c.081-.0326.1545-.0814.216-.1435.0614-.062.1095-.136.1412-.2174z"/><path d="m3.79375 20.4048.07988.0174c.11115.3855-.06252.7711-.08336 1.1358s0 .7711 0 1.1531v1.1497c.00882.1532.00184.3068-.02084.4585-.03088.0686-.05641.1394-.0764.2119-.00869.1283-.00869.2572 0 .3855.01236.1855.00538.3717-.02084.5558 0 .0173-.066.1875-.07295.2118-.0382.1112-.00001.1216-.07295.2189-.07584.1364-.19854.2408-.3454.2938-.14687.053-.30795.051-.45346-.0056-.23619-.1215-.41332-.3056-.65993-.4098-.29795-.125-.53493-.362-.65994-.6599-.12082-.2816-.21614-.5733-.28482-.8719-.02779-.0798-.08683-.0972-.1042-.1806-.01737-.0833 0-.1841 0-.2709s-.065993-.1181-.076413-.2119 0-.132 0-.198c-.002007-.0244-.010454-.0479-.024486-.068-.014032-.0202-.033153-.0362-.055405-.0466-.018049-.1521-.023853-.3054-.017363-.4585 0-.2014-.086833-.3647-.097253-.5765-.01042-.2119-.100727-.3474-.097254-.5731.003474-.2258 0-.3856 0-.5766 0-.3856 0-.7676 0-1.1532.011103-.1619.042608-.3218.093777-.4758.04168-.1911.052097-.396.093777-.5835.027787-.132.145881-.2779.17367-.3995.03049-.1657.09559-.3231.19104-.4619.14582-.2722.38332-.4838.67036-.5975.17461-.0688.36391-.0918.54992-.0669.18602.0249.36259.097.51293.2094.12789.091.23355.2097.30911.3473.02432.0799 0 .191 0 .2744.04013.0988.06588.2029.07643.3091-.04514.4156-.04514.8348 0 1.2504.04168.1772.15978.3856.2223.5731.06252.1876.05904.4203.25007.0903z"/><path d="m4.27319 15.5108c.25355-.0798.38553.4898.38206.6704-.00348.1806.05212.3473-.09029.4376-.15375.0686-.32553.0856-.48976.0487-.30218-.0903-.27787-.5245-.28134-.7711s.22925-.6426.57659-.5766z"/><path d="m37.1832 15.1255.0209-.0764c.0972 0 .1493-.0869.2292-.1042.1084-.014.2181-.014.3265 0 .1934-.0166.3851-.0491.5731-.0973.1156-.009.2317-.009.3473 0 .0899.0137.1775.0394.2605.0764.1959.0077.3868.0638.5558.1633.2806.2363.5089.5284.6703.8579.2333.3617.3663.7788.3856 1.2087.0217.1797-.0161.3615-.1077.5175-.104.1438-.1892.3002-.2536.4655-.0392.1743-.1422.3276-.2887.4298-.1466.1022-.3261.1459-.5032.1224-.4133-.0446-.8087-.1927-1.1497-.4307-.155-.0992-.3035-.2082-.4446-.3265-.1406-.0767-.2674-.1765-.3751-.2952-.1987-.3582-.3283-.7505-.3821-1.1566-.0646-.2317-.0788-.4745-.0416-.7121 0-.0416.059-.0451.0694-.0764.0105-.0312 0-.1528 0-.2223 0-.0694.1563-.2188.1077-.3438z"/><path d="m36.1412 15.8931c.2466 0-.0868-.6947-.3473-.6495-.2605.0451-.4411.4098-.4967.6113-.2362.8614 1.0663.9239 1.042.1354z"/><path d="m32.9734 17.4318c.0209.2014.2223.323.2675.5001.0149.0866.0097.1754-.0149.2597-.0247.0842-.0683.1618-.1275.2266-.0869.1181-.2536.2987-.4134.2675-.1597-.0313-.257-.2536-.3785-.3474-.2536-.1875-.6947-.382-.3891-.7641.1412-.1418.3285-.2281.528-.2431.1121-.0191.2272-.0115.3359.0223.1086.0338.2077.0928.2893.1722z"/><path d="m39.6145 25.9728c.3473.0868.3265-.455.2744-.6565-.1496-.0547-.3044-.0943-.4619-.1181-.2007.0334-.3916.1105-.5593.2258-.1413.0806-.247.2117-.2959.3668-.049.1552-.0375.3232.032.4703.1042.2049.5731.514.7988.3647.2056-.2324.316-.5338.3092-.844z"/><path d="m12.5224 5.3237c.0903-.17367.1528-.25008 0-.38554-.0639-.05033-.1397-.0832-.2201-.09538-.0803-.01218-.1625-.00325-.2384.02591-.2478.12179-.4614.3032-.6217.52795-.1118.12448-.1959.27128-.2466.4307-.0005.14375.0528.28249.1493.38901.1799.20304.3725.39445.5766.57311.2744.28481.4481.11809.6704-.14588.1806-.20493.3195-.44459.4828-.66689.0799-.12158.1451-.25215.1945-.38901.0012-.12642-.0418-.24929-.1216-.34734-.187-.25055-.436-.44808-.7225-.5731z"/><path d="m10.2265 6.10506h.0764c.0233.04756.0347.10007.0332.15301-.0015.05295-.0158.10473-.0418.15088s-.0628.08529-.1073.11404-.0953.04624-.1481.05098c-.21877.04862-.53832-.04168-.58695-.23966-.04863-.19799.14589-.38207.29177-.48627.2223-.16673.43068-.19799.48278.14588z"/><path d="m11.6644 30.679c.0118.1586.0518.3139.1181.4585.0485.1534.1053.3042.1702.4515.0665.1535.1144.3144.1424.4793.0348.1772.1181.3161.1494.4793.0694.3474-.3474.6148-.6947.5349-.2883-.1051-.5545-.2629-.785-.4654-.1563-.1111-.198-.0903-.2883-.2848-.0685-.1645-.1242-.3341-.1667-.5071-.0636-.1506-.0966-.3124-.0973-.4759-.0157-.1923-.0087-.3858.0209-.5765.2188-.9031 1.2087-.3231 1.4171.2882z"/><path d="m8.78504 36.9311c.09379-.3474-.5453-.5766-.76759-.5766-.2223 0-.30915.0313-.4064.264-.05207.0836-.07791.1809-.0742.2793s.03682.1935.09504.2729c.13332.1528.30707.2648.50124.3232.19418.0584.40089.0607.59635.0068.40291-.1598.22576-.6947-.13547-.7607z"/><path d="m12.9114 30.0054c.0659-.0241.1261-.0615.1769-.1099s.091-.1068.1183-.1714c.0243-.0869 0-.1841 0-.2744.0331-.0668.0599-.1366.0799-.2084 0-.0938-.0278-.2015 0-.2918s.0903-.1841.1077-.2883c.0312-.1841-.0417-.3925 0-.5766.0416-.1841.1979-.3716.0833-.5557s-.3056-.1355-.4654-.1181c-.1608.0315-.3197.0721-.4759.1216-.2184.0523-.4263.1416-.6147.2639-.2959.1498-.5233.407-.6357.719-.0555.3679-.039.743.0487 1.1046.0487.2814.1996.5349.4237.712.3475.1135.7247.0949 1.0594-.0521z"/><path d="m10.7058 29.8143v-.066c.0869.4689-.4654.4133-.58.0694-.1147-.3438.5001-.514.58-.1007z"/></g></g></svg>